<?xml version="1.0" encoding="utf-8"?>
<!-- Generator: Adobe Illustrator 18.0.0, SVG Export Plug-In . SVG Version: 6.00 Build 0)  -->
<!DOCTYPE svg PUBLIC "-//W3C//DTD SVG 1.1//EN" "http://www.w3.org/Graphics/SVG/1.1/DTD/svg11.dtd">
<svg version="1.1" id="Layer_1" xmlns="http://www.w3.org/2000/svg" xmlns:xlink="http://www.w3.org/1999/xlink" x="0px" y="0px"
	 viewBox="0 0 459.6 184.1" enable-background="new 0 0 459.6 184.1" xml:space="preserve">
<g>
	<g>
		<path fill="#231F20" d="M252.9,120.9c-0.8-9.9-8.8-12.5-18.1-12.5c-9.3,0-16.4,3.6-16.4,10.2c0,7.5,7,9.3,21.1,11.7
			c10.5,1.8,21.1,4.2,21.1,15.3c0,14.2-12.9,18.1-24.1,18.1c-14.7,0-25.4-5-26.2-20.6h6c1.1,12.1,9.2,15.1,20.2,15.1
			c8.7,0,17.7-2.3,17.7-11.5c0-8.8-10.5-9.9-21.1-11.6c-13.8-2.2-21.1-6.1-21.1-15.4c0-12.6,11.7-16.8,22.8-16.8
			c11.8,0,23.7,4.2,24.1,18H252.9z"/>
		<path fill="#231F20" d="M266.5,104.4h6v24.5h41.8v-24.5h6v57.8h-6v-27.9h-41.8v27.9h-6V104.4z"/>
		<path fill="#231F20" d="M358.1,102.9c16.4,0,31.4,10,31.4,30.4c0,20.4-15,30.4-31.4,30.4c-16.4,0-31.4-10-31.4-30.4
			C326.7,112.9,341.7,102.9,358.1,102.9z M358.1,158.1c12.7,0,24.9-7.5,24.9-24.9c0-17.4-12.2-24.9-24.9-24.9
			c-12.7,0-24.9,7.5-24.9,24.9C333.2,150.7,345.4,158.1,358.1,158.1z"/>
		<path fill="#231F20" d="M396.4,104.4h31.2c8.9,0,17.4,4.5,17.4,16.7c0,10.9-7.2,16.8-20.1,16.8h-22.5v24.3h-6V104.4z M402.4,132.4
			h23.2c10,0,13-4.6,13-11.3c0-8.7-4.9-11.2-11.7-11.2h-24.4V132.4z"/>
	</g>
	<rect x="21" y="121" fill="#838282" width="21" height="42.1"/>
	<rect x="21" y="21" fill="#00ADEE" width="21" height="42.1"/>
	<rect x="50.5" y="121" fill="#D3B712" width="21" height="42.1"/>
	<rect x="50.5" y="21" fill="#373536" width="21" height="42.1"/>
	<rect x="80" y="121" fill="#0063AF" width="21" height="42.1"/>
	<rect x="80" y="21" fill="#B55430" width="21" height="42.1"/>
	<rect x="109.4" y="121" fill="#00ADEE" width="21" height="42.1"/>
	<rect x="109.4" y="21" fill="#909738" width="21" height="42.1"/>
	<rect x="138.9" y="121" fill="#651450" width="21" height="42.1"/>
	<rect x="138.9" y="21" fill="#FFD300" width="21" height="42.1"/>
	<rect x="168.3" y="121" fill="#B2D235" width="21" height="42.1"/>
	<rect x="21" y="71.5" fill="#C960A3" width="21" height="42.1"/>
	<rect x="50.5" y="71.5" fill="#F9A719" width="21" height="42.1"/>
	<rect x="80" y="71.5" fill="#EE4423" width="21" height="42.1"/>
	<rect x="109.4" y="71.5" fill="#ADC137" width="21" height="42.1"/>
	<rect x="138.9" y="71.5" fill="#373536" width="21" height="42.1"/>
	<rect x="168.3" y="71.5" fill="#EE4423" width="21" height="42.1"/>
	<rect x="168.3" y="21" fill="#EB008B" width="21" height="42.1"/>
	<g>
		<path fill="#231F20" d="M269.2,46.1c-1.7-9.6-9.6-14.3-18.9-14.3c-17.1,0-20.7,13.4-20.7,22.4c0,9,3.6,22.4,20.7,22.4
			c8.7,0,17.2-4.2,18.9-14.7h19.6c-2.2,19.3-18.1,27.3-39.1,27.3c-24.1,0-39.1-10.4-39.1-35c0-24.6,15-35,39.1-35
			c16,0,36.3,4.1,39,26.9H269.2z"/>
		<path fill="#231F20" d="M340.3,73.6h-30.4l-5.4,13.6h-19.4L314.3,21H336l29.1,66.2h-19.4L340.3,73.6z M325.1,35.3l-10.4,26.2h20.8
			L325.1,35.3z"/>
		<path fill="#231F20" d="M369,21h48.1c18.4,0,21.4,11.2,21.4,18c0,8.1-3.2,13.3-10.8,16v0.2c7.9,1.2,9.1,11.2,9.1,17.7
			c0,3.2,0.3,11,3.4,14.4h-19.7c-1.7-3.1-1.8-5.8-1.8-12.7c0-9.3-4-11.6-9.6-11.6H387v24.3h-18V21z M387,50.4h23.8
			c4,0,8.6-2.2,8.6-8.4c0-6.6-5.2-8.3-9.6-8.3H387V50.4z"/>
	</g>
</g>
</svg>
